HIERARCHY
ROOT hip
{
	OFFSET 0.000000 0.000000 0.000000 
	CHANNELS 6 Xposition Yposition Zposition Xrotation Zrotation Yrotation
	JOINT abdomen
	{
		OFFSET 0.000000 3.402643 0.000000 
		CHANNELS 3 Xrotation Zrotation Yrotation
		JOINT chest
		{
			OFFSET 0.000000 8.438565 -0.680529 
			CHANNELS 3 Xrotation Zrotation Yrotation
			JOINT neck
			{
				OFFSET 0.000000 10.207942 -0.272212 
				CHANNELS 3 Xrotation Zrotation Yrotation
				JOINT head
				{
					OFFSET 0.000000 3.130431 0.000000 
					CHANNELS 3 Xrotation Zrotation Yrotation
					End Site
					{
						OFFSET 0.000000 3.130435 0.000000 
					}
				}
			}
			JOINT lCollar
			{
				OFFSET 3.470700 6.669187 -0.816635 
				CHANNELS 3 Yrotation Zrotation Xrotation
				JOINT lShldr
				{
					OFFSET 3.198488 0.000000 0.000000 
					CHANNELS 3 Zrotation Yrotation Xrotation
					JOINT lForeArm
					{
						OFFSET 10.139888 0.000000 0.000000 
						CHANNELS 3 Yrotation Zrotation Xrotation
						JOINT lHand
						{
							OFFSET 8.370511 0.000000 0.000000 
							CHANNELS 3 Zrotation Yrotation Xrotation
							End Site
							{
								OFFSET 4.083176 0.000000 0.000000 
							}
						}
					}
				}
			}
			JOINT rCollar
			{
				OFFSET -3.470700 6.669187 -0.816635 
				CHANNELS 3 Yrotation Zrotation Xrotation
				JOINT rShldr
				{
					OFFSET -3.198488 0.000000 0.000000 
					CHANNELS 3 Zrotation Yrotation Xrotation
					JOINT rForeArm
					{
						OFFSET -10.139888 0.000000 0.000000 
						CHANNELS 3 Yrotation Zrotation Xrotation
						JOINT rHand
						{
							OFFSET -8.370511 0.000000 0.000000 
							CHANNELS 3 Zrotation Yrotation Xrotation
							End Site
							{
								OFFSET -4.083176 0.000000 0.000000 
							}
						}
					}
				}
			}
		}
	}
	JOINT lThigh
	{
		OFFSET 5.308129 -1.633274 1.361059 
		CHANNELS 3 Xrotation Zrotation Yrotation
		JOINT lShin
		{
			OFFSET -2.041588 -20.007561 0.000000 
			CHANNELS 3 Xrotation Zrotation Yrotation
			JOINT lFoot
			{
				OFFSET 0.000000 -19.190928 -1.224953 
				CHANNELS 3 Xrotation Yrotation Zrotation
				End Site
				{
					OFFSET 0.000000 -2.449906 4.627600 
				}
			}
		}
	}
	JOINT rThigh
	{
		OFFSET -5.308129 -1.633274 1.361059 
		CHANNELS 3 Xrotation Zrotation Yrotation
		JOINT rShin
		{
			OFFSET 2.041588 -20.007561 0.000000 
			CHANNELS 3 Xrotation Zrotation Yrotation
			JOINT rFoot
			{
				OFFSET 0.000000 -19.190928 -1.224953 
				CHANNELS 3 Xrotation Yrotation Zrotation
				End Site
				{
					OFFSET 0.000000 -2.449906 4.627600 
				}
			}
		}
	}
}
MOTION
Frames: 19
Frame Time: 0.016667
-10.472726 26.243525 19.557571 14.187245 6.581947 -5.908299 -11.074275 -0.182092 -1.478032 15.705001 0.874304 -1.179834 -25.375675 1.861887 -9.242121 -1.561725 6.150076 -4.551155 1.993405 -2.003458 -0.008156 -71.243202 -27.230423 13.015125 -46.522377 -0.416596 -1.219859 -0.084388 0.094901 13.642609 -2.003062 1.991579 -0.506922 81.822479 18.053667 -20.430983 28.426659 -0.103622 -0.499136 0.086321 -0.105329 11.328141 -87.241264 4.198976 6.323214 114.189873 -5.147957 4.924407 -44.396427 -1.896548 -6.335712 -86.200325 -27.441378 8.379819 124.500771 5.986203 -4.562451 -42.725655 21.939924 15.378644 
-10.565369 25.404625 19.668106 13.456391 6.821067 -6.292033 -10.966805 0.067111 -1.595036 15.265872 0.960953 -1.251287 -25.868597 1.476306 -9.016283 -1.757689 6.003054 -4.528574 1.993405 -2.003458 -0.008156 -70.489334 -28.356297 12.194139 -48.612900 -0.447201 -1.245912 -0.087115 0.095522 12.001986 -2.003062 1.991579 -0.506922 81.825333 18.234102 -22.225214 27.791924 -0.106725 -0.495700 0.086878 -0.105439 11.025408 -87.489471 4.970779 6.306519 116.477417 -5.456235 4.871340 -44.977398 -2.002633 -6.885889 -86.833450 -28.954672 9.054790 126.757355 6.337931 -4.505237 -44.893070 23.459044 17.169493 
-10.670929 24.632744 19.772390 12.782730 7.011160 -7.007390 -10.869526 0.479521 -1.625275 14.935760 1.330450 -1.285635 -26.040287 1.096816 -8.748652 -1.796489 5.856515 -4.449989 1.993405 -2.003458 -0.008156 -69.679970 -29.356932 11.130763 -50.703423 -0.470173 -1.268328 -0.079716 0.095994 10.585956 -2.003062 1.991579 -0.506922 81.670944 18.220739 -24.191856 27.342733 -0.111510 -0.492036 0.087381 -0.105536 10.751970 -87.571396 6.376156 6.285529 118.811752 -5.842224 4.835486 -45.809681 -2.420014 -7.690174 -87.556908 -29.970491 9.914507 128.720032 6.660114 -4.437140 -47.135685 25.296865 19.130867 
-10.787518 23.939638 19.867672 11.933599 7.282327 -7.917308 -10.753448 0.949822 -1.645199 14.656999 1.936856 -1.348967 -26.214302 0.884899 -8.443434 -1.845349 5.788033 -4.335607 1.993405 -2.003458 -0.008156 -68.579514 -30.238483 9.787161 -52.725651 -0.493561 -1.293403 -0.073382 0.086685 9.501972 -2.003062 1.991579 -0.506922 81.498291 18.045046 -26.045528 27.088833 -0.109328 -0.492525 0.088282 -0.105703 10.263674 -87.342865 8.251821 6.611964 120.971268 -6.176130 4.825267 -47.120621 -2.850502 -8.596000 -88.206680 -30.838734 10.965354 130.542633 6.922627 -4.378660 -49.692295 27.278605 21.399565 
-10.895477 23.318558 19.939947 10.983997 7.508017 -8.800844 -10.608768 1.420618 -1.730819 14.419253 2.582151 -1.465046 -26.643208 0.768135 -8.178295 -2.012179 5.777709 -4.235804 1.993405 -2.003458 -0.008156 -67.119255 -30.988890 8.209365 -54.611240 -0.518831 -1.320462 -0.082570 0.096484 8.886740 -2.003062 1.991579 -0.506922 81.290283 17.954548 -28.015095 26.629835 -0.118486 -0.497737 0.089183 -0.105862 9.775393 -86.644119 10.213310 6.965129 122.887169 -6.499177 4.777062 -48.692989 -3.392059 -9.673646 -88.871513 -31.785963 11.942286 132.190216 7.168340 -4.334864 -52.201908 29.227018 23.732801 
-10.994110 22.753624 19.990587 10.089247 7.587327 -9.531946 -10.847357 2.119676 -1.978054 14.349402 3.226411 -1.645490 -27.209038 0.668753 -7.863322 -2.238011 5.796387 -4.102922 1.993405 -2.003458 -0.008156 -65.516289 -31.699284 6.311953 -56.321075 -0.541506 -1.340772 -0.073496 0.096589 8.476583 -2.003062 1.991579 -0.506922 80.873100 17.947260 -30.160175 25.995100 -0.121743 -0.494739 0.089779 -0.105963 9.453128 -86.048698 12.205416 7.168945 124.603073 -6.762267 4.736248 -49.932026 -4.635735 -11.158090 -89.106293 -32.909218 12.476002 133.695969 7.429862 -4.256259 -54.769234 30.900511 26.000412 
-11.086928 22.230701 20.041229 9.187298 7.800298 -10.236345 -10.647916 2.831336 -2.289734 14.442848 4.142644 -1.873515 -27.569283 0.450154 -7.529939 -2.336128 5.786235 -3.956138 1.993405 -2.003458 -0.008156 -63.743896 -32.413368 4.117218 -57.825638 -0.554787 -1.358515 -0.093074 0.106459 7.675804 -2.003062 1.991579 -0.506922 80.212830 17.972683 -32.485207 25.321314 -0.133571 -0.487783 0.090086 -0.106014 9.287113 -85.382607 14.264939 7.503472 126.163376 -7.015749 4.684731 -50.934250 -6.272324 -12.896844 -89.254333 -34.266819 12.928369 135.123322 7.658116 -4.216824 -57.540722 32.275860 28.418011 
-11.176759 21.752043 20.116255 8.180661 8.236815 -11.036513 -10.339853 3.324158 -2.539268 14.780147 4.825910 -2.058099 -27.939486 0.086274 -7.301615 -2.463350 5.697889 -3.896823 1.993405 -2.003458 -0.008156 -61.380013 -33.266918 1.890527 -59.154491 -0.571700 -1.376128 -0.095454 0.106753 6.396510 -2.003062 1.991579 -0.506922 79.794983 17.917898 -35.332813 24.862347 -0.129659 -0.488838 0.090429 -0.106069 9.101566 -84.220436 16.491079 8.352125 127.622108 -7.290396 4.621753 -52.044476 -7.719128 -14.540224 -89.435135 -35.818447 13.667500 136.513031 7.919975 -4.111525 -60.632362 33.453579 30.996723 
-11.273703 21.321526 20.167645 7.260046 8.613087 -11.855387 -10.069729 3.673162 -2.682975 15.131310 5.167047 -2.149398 -28.418371 -0.292021 -7.039252 -2.639251 5.531272 -3.877376 1.993405 -2.003458 -0.008156 -58.515045 -34.188911 -0.371141 -60.238998 -0.580685 -1.389106 -0.088847 0.097258 5.175791 -2.003062 1.991579 -0.506922 79.727676 17.659695 -38.469864 24.803764 -0.138024 -0.484873 0.091714 -0.106267 8.408207 -82.888359 19.012962 9.439709 128.900070 -7.522244 4.580173 -53.324738 -8.889958 -16.107428 -89.553848 -37.127316 14.270861 137.701538 8.104157 -4.060683 -63.639236 34.490177 33.530739 
-11.378487 20.950905 20.160269 6.414769 8.861083 -12.777162 -9.908767 4.127177 -2.790147 15.318168 5.567757 -2.227296 -28.653648 -0.522754 -6.521009 -2.687564 5.365221 -3.688792 1.993405 -2.003458 -0.008156 -55.579342 -34.983677 -2.958225 -61.010876 -0.588474 -1.404414 -0.080225 0.097355 4.501964 -2.003062 1.991579 -0.506922 79.629478 17.386314 -41.703934 24.696312 -0.141195 -0.494003 0.091572 -0.116111 7.773443 -81.498756 21.891935 10.596351 130.064743 -7.662202 4.555636 -54.770256 -10.405336 -17.911180 -89.854065 -37.771263 14.956227 138.667938 8.279700 -4.012888 -65.896423 35.382240 35.660923 
-11.476606 20.649055 20.120506 5.540630 9.225025 -13.815093 -9.846746 4.618748 -2.948953 15.374425 6.169377 -2.349679 -28.381601 -0.756092 -5.743894 -2.500455 5.180636 -3.341116 1.993405 -2.003458 -0.008156 -52.730244 -35.464638 -6.038054 -61.519077 -0.597823 -1.408842 -0.089736 0.107129 4.228527 -2.003062 1.991579 -0.506922 79.246872 17.264994 -45.167568 24.139698 -0.145300 -0.491358 0.092185 -0.106336 8.154302 -80.044937 24.870680 11.907698 131.041489 -7.808919 4.506570 -56.022419 -12.111378 -19.682453 -90.133553 -37.850929 15.804390 139.435547 8.414817 -4.012506 -67.962608 35.928848 37.509197 
-11.552683 20.422478 20.102125 4.539077 9.803741 -14.859977 -9.813018 4.994584 -3.244811 15.470321 6.722383 -2.528188 -28.151711 -1.239948 -4.961727 -2.332675 4.878786 -3.049342 1.993405 -2.003458 -0.008156 -49.838531 -35.657631 -9.403930 -61.939194 -0.600691 -1.417207 -0.080664 0.107179 3.857433 -2.003062 1.991579 -0.506922 78.686562 17.162169 -48.703758 23.387781 -0.147803 -0.489346 0.090176 -0.106029 9.238284 -77.935295 27.331062 13.762645 131.718552 -7.904533 4.473856 -57.376518 -13.278979 -21.207460 -90.558609 -37.976902 16.966619 140.126358 8.505608 -3.945391 -70.060989 36.165085 39.248672 
-11.606951 20.264677 20.087246 3.565390 10.478179 -15.784726 -9.846006 5.225065 -3.629919 15.580979 7.086086 -2.726530 -28.297760 -1.874687 -4.235325 -2.370747 4.546903 -2.824175 1.993405 -2.003458 -0.008156 -46.890892 -35.605984 -12.783873 -62.330025 -0.604196 -1.425382 -0.091782 0.107261 3.134778 -2.003062 1.991579 -0.506922 78.094620 16.829557 -51.721474 22.909290 -0.152706 -0.486762 0.089309 -0.105884 9.707034 -75.910843 29.095694 15.603837 132.169327 -7.983297 4.443515 -58.342033 -14.220158 -22.316223 -91.052513 -38.310139 18.074066 140.628525 8.526793 -3.924430 -71.708191 36.339680 40.602783 
-11.635308 20.174522 20.072367 2.568219 11.170692 -16.689606 -9.897366 5.368597 -4.030517 15.770492 7.154854 -2.897424 -28.709526 -2.415787 -3.560665 -2.526495 4.253689 -2.628407 1.993405 -2.003458 -0.008156 -43.926399 -35.463795 -16.091589 -62.730534 -0.602899 -1.425094 -0.083498 0.107332 2.343765 -2.003062 1.991579 -0.506922 77.511070 16.534895 -54.757755 22.577271 -0.149883 -0.487638 0.089364 -0.105893 9.677737 -73.942474 30.397833 17.397287 132.406799 -8.004049 4.451536 -58.926590 -15.234027 -23.210705 -91.389511 -38.709595 19.061117 140.977707 8.555211 -3.901670 -72.742119 36.659691 41.581326 
-11.650789 20.140011 20.059237 1.586391 11.821767 -17.554670 -9.899441 5.493660 -4.452621 16.074055 7.106576 -3.046259 -29.580624 -2.454901 -2.806463 -2.878845 4.203691 -2.320010 1.993405 -2.003458 -0.008156 -41.093777 -35.214386 -19.456062 -63.072765 -0.616217 -1.428523 -0.084276 0.117132 1.767595 -2.003062 1.991579 -0.506922 76.910217 16.398232 -57.618382 22.518690 -0.158405 -0.484051 0.090014 -0.106002 9.326175 -72.028023 31.393305 19.056601 132.463074 -7.983562 4.437490 -59.219044 -16.264725 -23.872488 -91.620758 -38.925838 19.964697 141.178299 8.547259 -3.848407 -73.312798 36.573101 42.092651 
-11.665107 20.158516 20.043728 0.570155 12.499401 -18.410450 -9.603912 5.421453 -4.870576 16.574230 7.313564 -3.210123 -30.133514 -2.661096 -1.952664 -3.074153 4.066425 -1.975469 1.993405 -2.003458 -0.008156 -38.478001 -34.971329 -22.888000 -63.297413 -0.615001 -1.439652 -0.094521 0.117146 1.533220 -2.003062 1.991579 -0.506922 76.270050 16.358894 -59.278240 23.026474 -0.153701 -0.486448 0.091406 -0.106221 8.574224 -70.175629 32.148449 20.623268 132.390778 -7.936130 4.410086 -59.093555 -17.193033 -24.238285 -91.737617 -38.562798 20.935371 141.358246 8.564091 -3.823034 -72.908279 35.856552 41.710247 
-11.664669 20.237917 20.025475 -0.561812 13.241574 -19.199772 -9.664490 5.526410 -5.431160 16.963421 7.186518 -3.399463 -29.872259 -3.397037 -1.010217 -2.886839 3.686734 -1.640478 1.993405 -2.003458 -0.008156 -36.265396 -34.658157 -26.048195 -63.444077 -0.620050 -1.436852 -0.094261 0.117138 1.660173 -2.003062 1.991579 -0.506922 75.629944 16.093796 -59.340622 24.042046 -0.144463 -0.491605 0.074487 -0.106582 7.167975 -68.631165 32.214878 21.851744 132.096542 -7.884277 4.402187 -58.195232 -18.278818 -24.123703 -91.644241 -38.085079 21.922119 141.481262 8.557693 -3.830914 -71.977196 34.477142 40.703239 
-11.647913 20.419727 20.030350 -2.194990 14.091629 -20.230108 -9.781250 5.466735 -5.989183 17.148766 6.880429 -3.614246 -28.987347 -4.564520 0.014526 -2.454841 3.131895 -1.325407 1.993405 -2.003458 -0.008156 -34.452492 -34.217293 -28.731495 -63.590523 -0.616375 -1.438433 -0.093622 0.117118 1.972672 -2.003062 1.991579 -0.506922 74.987892 15.673807 -58.862495 25.096714 -0.131657 -0.488303 0.087025 -0.116704 5.205087 -66.302330 32.042957 23.557737 131.552902 -7.748608 4.432718 -57.052944 -19.450830 -23.862385 -91.044594 -37.822361 23.011528 141.358109 8.486643 -3.837196 -71.121964 32.505009 39.636749 
-11.648950 20.716076 20.052982 -4.571002 15.042080 -21.520510 -9.836967 5.273330 -6.527959 17.244297 6.531375 -3.846831 -28.251263 -5.389645 0.994009 -2.150954 2.771486 -0.914478 1.993405 -2.003458 -0.008156 -32.978497 -33.879490 -30.915745 -63.737186 -0.621450 -1.435681 -0.083424 0.107329 2.382827 -2.003062 1.991579 -0.506922 74.234207 15.422861 -59.123238 25.692387 -0.127927 -0.491142 0.090831 -0.107205 3.642573 -62.653278 31.714563 26.067480 130.705917 -7.554083 4.453737 -56.072472 -20.607712 -23.595558 -89.868927 -37.607090 24.465202 141.027176 8.346419 -3.814537 -70.398338 30.416397 38.508560 
